<?xml version="1.0" encoding="UTF-8"?>
<svg width="89px" height="26px" viewBox="0 0 89 26" version="1.1" xmlns="http://www.w3.org/2000/svg" xmlns:xlink="http://www.w3.org/1999/xlink">
    <!-- Generator: Sketch 51.1 (57501) - http://www.bohemiancoding.com/sketch -->
    <title>原力推</title>
    <desc>Created with Sketch.</desc>
    <defs></defs>
    <g id="Page-1" stroke="none" stroke-width="1" fill="none" fill-rule="evenodd">
        <g id="首页" transform="translate(-162.000000, -30.000000)" fill="#FFFFFF">
            <g id="Group-19">
                <path d="M175.160976,37.7170732 C174.907316,37.8926838 174.639026,38.0682918 174.356098,38.2439024 C174.073169,38.4195131 173.824391,38.5365851 173.609756,38.595122 C173.765854,39.0439047 173.878048,39.3902427 173.946341,39.6341463 C174.014634,39.87805 174.04878,40.14634 174.04878,40.4390244 C174.5561,40.3999998 175.097558,40.3414638 175.673171,40.2634146 C176.248783,40.1853655 176.731705,40.0390255 177.121951,39.8243902 C177.512197,39.609755 177.960973,39.502439 178.468293,39.502439 C178.819514,39.502439 179.165852,39.575609 179.507317,39.7219512 C179.848782,39.8682934 180.019512,40.0487794 180.019512,40.2634146 C180.019512,40.6926851 179.160984,41.0341451 177.443902,41.2878049 C176.253653,41.4634155 175.190249,41.5512195 174.253659,41.5512195 L174.721951,44.302439 C175.639029,44.1268284 176.331705,44.0000004 176.8,43.9219512 C178.263422,43.6487791 179.434142,43.5121951 180.312195,43.5121951 C180.682929,42.439019 181.039023,41.375615 181.380488,40.3219512 C181.721953,39.2682874 181.892683,38.5170754 181.892683,38.0682927 C181.892683,37.5219485 181.726831,37.2487805 181.395122,37.2487805 C180.809753,37.2487805 180.214637,37.3268285 179.609756,37.4829268 C178.087797,37.8731727 177.180489,38.0682927 176.887805,38.0682927 C176.556096,38.0682927 176.27805,38.0487807 176.053659,38.0097561 C175.829267,37.9707315 175.531709,37.8731715 175.160976,37.7170732 Z M171.736585,47.902439 C171.717073,49.1317135 171.380491,50.3951155 170.726829,51.6926829 C170.073167,52.9902504 169.502441,53.6390244 169.014634,53.6390244 C168.643901,53.6390244 168.458537,53.2000044 168.458537,52.3219512 L168.546341,50.8878049 C168.565854,50.692682 168.96585,50.03903 169.746341,48.9268293 C170.429272,47.9512146 170.926828,47.2780506 171.239024,46.9073171 L171.473171,46.6439024 C171.570732,46.6439024 171.639024,46.7707304 171.678049,47.0243902 C171.717073,47.27805 171.736585,47.52195 171.736585,47.7560976 L171.736585,47.902439 Z M180.136585,44.595122 C179.473167,44.595122 178.795125,44.639024 178.102439,44.7268293 C177.409753,44.8146346 176.858539,44.8878046 176.44878,44.9463415 C176.995125,45.1609767 177.395121,45.3463407 177.64878,45.502439 C178.136588,45.8146357 178.380488,46.1463397 178.380488,46.497561 L178.292683,47.5804878 L178.380488,52.0585366 C178.380488,52.8780529 178.263416,53.6292649 178.029268,54.3121951 C177.697559,55.2878098 177.200003,55.7756098 176.536585,55.7756098 C176.263413,55.7756098 176.048781,55.6000018 175.892683,55.2487805 C175.736585,54.8975592 175.609757,54.5951232 175.512195,54.3414634 C175.414634,54.0878036 174.770738,53.4439076 173.580488,52.4097561 C173.073168,51.9609734 172.819512,51.6487814 172.819512,51.4731707 C172.819512,51.4341461 172.84878,51.3951221 172.907317,51.3560976 C172.926829,51.3560976 172.956097,51.3463416 172.995122,51.3268293 C173.307319,51.3268293 173.746339,51.4487793 174.312195,51.6926829 C174.878052,51.9365866 175.287804,52.0585366 175.541463,52.0585366 C175.834148,52.0585366 176.02439,51.9414646 176.112195,51.7073171 C176.2,51.4731696 176.243902,51.1902456 176.243902,50.8585366 L176.243902,47.2878049 C176.243902,46.6634115 176.185366,46.2000015 176.068293,45.897561 C175.951219,45.5951204 175.775611,45.3463424 175.541463,45.1512195 L174.809756,45.3268293 C174.790244,45.5219522 174.72683,45.6975602 174.619512,45.8536585 C174.512195,46.0097569 174.360977,46.0878049 174.165854,46.0878049 C173.873169,46.0878049 173.546343,45.8048809 173.185366,45.2390244 C172.824388,44.6731679 172.643902,44.2146359 172.643902,43.8634146 C172.643902,43.3365827 172.590244,42.6292727 172.482927,41.7414634 C172.375609,40.8536541 172.253659,40.2146361 172.117073,39.8243902 C172.097561,39.7658534 171.765857,39.2390294 171.121951,38.2439024 C170.848779,37.814632 170.712195,37.570732 170.712195,37.5121951 C170.712195,37.3560968 170.868291,37.2780488 171.180488,37.2780488 C171.45366,37.2780488 171.731706,37.3121948 172.014634,37.3804878 C172.297562,37.4487808 172.54634,37.5121948 172.760976,37.5707317 C173.151221,37.3170719 173.619509,36.7414679 174.165854,35.8439024 C174.790247,34.8097509 175.102439,34.0000029 175.102439,33.4146341 C175.102439,33.0634129 174.985367,32.8195129 174.75122,32.6829268 L170.858537,33.3853659 C170.585364,36.5073327 169.834152,39.7268127 168.604878,43.0439024 C167.141456,47.0244101 165.414644,49.7463341 163.42439,51.2097561 C163.112194,51.4243913 162.946342,51.5414633 162.926829,51.5609756 C162.673169,51.717074 162.478049,51.795122 162.341463,51.795122 L162.253659,51.6780488 C162.253659,51.5414627 162.360975,51.2975627 162.57561,50.9463415 C162.731708,50.7317062 162.819512,50.5951222 162.839024,50.5365854 C164.16586,48.7024299 165.395116,46.0829439 166.526829,42.6780488 C167.658542,39.2731537 168.22439,36.4585477 168.22439,34.2341463 C168.22439,33.9024374 168.12683,33.5121974 167.931707,33.0634146 C167.4439,31.9317017 167.2,31.3365857 167.2,31.2780488 C167.2,31.1024381 167.307316,31.0146341 167.521951,31.0146341 C167.834148,31.0146341 168.229266,31.1414621 168.707317,31.395122 C169.185368,31.6487818 169.678046,31.9024378 170.185366,32.1560976 C171.004882,32.1560976 171.951214,32.0634156 173.02439,31.8780488 C174.097566,31.692682 175.131702,31.512196 176.126829,31.3365854 C176.907321,31.2390239 177.551217,31.1512199 178.058537,31.0731707 C178.565856,30.9951216 179.112192,30.8829276 179.697561,30.7365854 C180.28293,30.5902432 180.878046,30.4390252 181.482927,30.2829268 C182.126832,30.2829268 182.682924,30.3512188 183.15122,30.4878049 C183.892687,30.7024401 184.263415,31.0536561 184.263415,31.5414634 C184.263415,31.8146355 184.151221,31.9951215 183.926829,32.0829268 C183.702438,32.1707321 183.443904,32.2146341 183.15122,32.2146341 L180.75122,32.1560976 C179.931703,32.1560976 179.195125,32.1756096 178.541463,32.2146341 C177.887802,32.2536587 177.1122,32.3317067 176.214634,32.4487805 C176.585368,32.6439034 176.975608,32.9170714 177.385366,33.2682927 C177.912198,33.7170754 178.17561,34.0975594 178.17561,34.4097561 C178.17561,34.5463421 178.07805,34.6829261 177.882927,34.8195122 C177.687804,34.9560982 177.512196,35.0829262 177.356098,35.2 C177.102438,35.3951229 176.751222,35.7658509 176.302439,36.3121951 C176.204878,36.4878058 176.107318,36.6536578 176.009756,36.8097561 C176.536588,36.8097561 177.429262,36.7170741 178.687805,36.5317073 C179.946348,36.3463405 180.69756,36.1658545 180.941463,35.9902439 C181.185367,35.8146333 181.385365,35.6780493 181.541463,35.5804878 C181.85366,35.3658526 182.068292,35.2585366 182.185366,35.2585366 C182.458538,35.2585366 183.068288,35.7609706 184.014634,36.7658537 C184.96098,37.7707367 185.434146,38.4097547 185.434146,38.6829268 C185.434146,38.8780498 185.287806,39.0829258 184.995122,39.297561 C184.780487,39.4536593 184.663415,39.5512193 184.643902,39.5902439 C183.785362,41.3853748 183.063418,42.7707268 182.478049,43.7463415 C181.834143,44.8000053 181.297563,45.3268293 180.868293,45.3268293 C180.575608,45.3268293 180.331708,45.0829293 180.136585,44.595122 Z M185.258537,50.9170732 C185.258537,51.6975649 185.053661,52.0878049 184.643902,52.0878049 C184.058534,52.0878049 183.121958,51.3170809 181.834146,49.7756098 C180.624384,48.3317001 180.019512,47.4829281 180.019512,47.2292683 C180.019512,47.1317068 180.09756,47.0829268 180.253659,47.0829268 C181.209761,47.0829268 182.253653,47.4731668 183.385366,48.2536585 C184.634153,49.1121994 185.258537,49.9999954 185.258537,50.9170732 Z M207.072517,38.4487805 C206.311538,40.4390343 205.50179,42.2536503 204.643249,43.8926829 C203.589585,45.9024491 202.467645,47.6390171 201.277395,49.102439 C199.911535,50.8000085 198.448135,52.1268245 196.887152,53.0829268 C196.750565,53.1804883 196.521299,53.3024383 196.199347,53.4487805 C195.877394,53.5951227 195.677396,53.6682927 195.599347,53.6682927 C195.482273,53.6682927 195.423737,53.6195127 195.423737,53.5219512 C195.423737,53.3853652 195.516419,53.1853672 195.701786,52.9219512 C195.887152,52.6585353 196.057882,52.4390253 196.213981,52.2634146 C197.892038,50.5268206 199.482266,48.4683046 200.984713,46.0878049 C202.623745,43.49267 203.765197,41.141474 204.409103,39.0341463 C203.804222,39.0926832 202.950572,39.2536572 201.848127,39.5170732 C200.745683,39.7804891 199.989593,40.0390231 199.579834,40.2926829 C199.404224,40.4097567 199.24325,40.5121947 199.096908,40.6 C198.950565,40.6878053 198.818859,40.7317073 198.701786,40.7317073 C198.409101,40.7317073 197.848131,40.4682953 197.018859,39.9414634 C196.189586,39.4146315 195.774956,39.0146355 195.774956,38.7414634 C195.774956,38.643902 195.843248,38.57561 195.979834,38.5365854 C196.057884,38.5170731 196.174956,38.5073171 196.331054,38.5073171 C196.506665,38.5073171 196.779833,38.5365851 197.150566,38.595122 C197.5213,38.6536588 197.784712,38.6829268 197.94081,38.6829268 C198.604228,38.6829268 199.79446,38.5268308 201.511542,38.2146341 C203.228624,37.9024375 204.399344,37.6292695 205.023737,37.395122 C205.335934,36.4975565 205.579834,35.7170765 205.755444,35.0536585 C206.048129,33.9804824 206.194469,33.1902464 206.194469,32.6829268 C206.194469,32.3512179 206.096909,32.0000019 205.901786,31.6292683 C205.706663,31.2585347 205.501787,30.8682947 205.287152,30.4585366 C205.287152,30.3414628 205.345688,30.2634148 205.462761,30.2243902 C205.579835,30.1853657 205.657883,30.1658537 205.696908,30.1658537 C206.204227,30.1658537 206.974951,30.4585337 208.009103,31.0439024 C209.043254,31.6292712 209.560322,32.1658512 209.560322,32.6536585 C209.560322,32.8292692 209.49203,32.9999992 209.355444,33.1658537 C209.218858,33.3317081 209.09203,33.4926821 208.974956,33.6487805 C208.799346,33.9804895 208.623738,34.3999975 208.448127,34.9073171 C207.999344,36.1756161 207.726176,36.9073161 207.628615,37.102439 C207.979836,37.102439 208.794462,36.995123 210.072517,36.7804878 C211.350573,36.5658526 212.135931,36.4000006 212.428615,36.2829268 C212.721299,36.1073162 212.945687,35.9804882 213.101786,35.902439 C213.413982,35.7268284 213.63837,35.6390244 213.774956,35.6390244 C214.009104,35.6390244 214.50666,36.0292644 215.267639,36.8097561 C216.028619,37.5902478 216.409103,38.0878038 216.409103,38.302439 C216.409103,38.4585374 216.340811,38.6341454 216.204225,38.8292683 C215.833491,39.3365879 215.638371,39.6195119 215.618859,39.6780488 C215.501785,40.0682946 215.389591,40.5268266 215.282273,41.0536585 C215.174956,41.5804904 215.072518,42.0878024 214.974956,42.5756098 C214.584711,44.3512284 214.262763,45.6682884 214.009103,46.5268293 C213.579832,48.0683004 213.101788,49.4438964 212.574956,50.6536585 C211.970075,52.0585436 211.287155,53.2292636 210.526176,54.1658537 C210.194467,54.5365872 209.843251,54.8682912 209.472517,55.1609756 C208.98471,55.5317092 208.565202,55.7170732 208.213981,55.7170732 C207.979833,55.7170732 207.823737,55.6536592 207.745688,55.5268293 C207.667639,55.3999994 207.609103,55.1902454 207.570078,54.897561 C207.472517,54.2731676 206.711549,53.2487876 205.287152,51.8243902 C204.643246,51.1804846 204.321298,50.7024406 204.321298,50.3902439 L204.409103,50.2731707 C205.267644,50.6829289 206.05788,51.0536569 206.779834,51.3853659 C207.501789,51.7170748 208.077393,51.8829268 208.506664,51.8829268 C209.150569,51.8829268 209.882269,50.8975708 210.701786,48.9268293 C211.404228,47.2487721 212.028612,45.3219621 212.574956,43.1463415 C213.121301,40.9707208 213.394469,39.4829308 213.394469,38.6829268 C213.394469,38.3512179 213.335933,38.0585379 213.218859,37.804878 C213.101785,37.5512182 212.896909,37.4243902 212.604225,37.4243902 C212.370077,37.4243902 211.462769,37.5707302 209.882273,37.8634146 C208.301778,38.156099 207.365202,38.351219 207.072517,38.4487805 Z M242.349913,51.9121951 L242.320645,47.4341463 C241.793813,47.5317078 241.179185,47.6292678 240.476742,47.7268293 C239.7743,47.8243907 239.159672,47.8731707 238.63284,47.8731707 L238.63284,49.6878049 C238.63284,49.960977 238.623084,50.399997 238.603571,51.004878 C238.584059,51.6097591 238.574303,52.0682911 238.574303,52.3804878 C239.159672,52.3804878 239.7743,52.3268298 240.418206,52.2195122 C241.062111,52.1121946 241.706007,52.0097566 242.349913,51.9121951 Z M242.349913,46.204878 L242.320645,43.1902439 C242.008448,43.2682931 241.579184,43.3414631 241.03284,43.4097561 C240.486495,43.4780491 240.086499,43.5121951 239.83284,43.5121951 C239.32552,43.5121951 238.974304,43.4439031 238.779181,43.3073171 L238.662108,46.7317073 C239.18894,46.6731704 239.784056,46.5951224 240.447474,46.497561 C241.110892,46.3999995 241.745032,46.3024395 242.349913,46.204878 Z M242.291376,41.902439 L242.291376,41.3170732 C242.291376,40.6146306 242.242596,40.0878066 242.145035,39.7365854 C241.988936,39.1902412 241.6865,38.7707332 241.237718,38.4780488 C240.925521,38.5170734 240.515769,38.5658534 240.008449,38.6243902 C239.50113,38.6829271 239.081622,38.7121951 238.749913,38.7121951 L238.10601,38.6536585 C238.437719,39.082929 238.662107,39.429267 238.779181,39.6926829 C238.896255,39.9560989 238.954791,40.2439009 238.954791,40.5560976 C238.954791,40.7317082 238.935279,40.9951202 238.896254,41.3463415 C238.85723,41.6975627 238.818206,42.0682907 238.779181,42.4585366 L239.130401,42.4878049 C239.501134,42.4878049 240.057226,42.4097569 240.798693,42.2536585 C241.149915,42.1756094 241.647471,42.0585374 242.291376,41.902439 Z M231.813327,38.0390244 C231.813327,38.5268317 231.793815,39.2390197 231.754791,40.1756098 C231.715766,41.1121998 231.696254,41.8048758 231.696254,42.2536585 C232.125525,41.9804864 232.496253,41.7463424 232.808449,41.5512195 C233.41333,41.180486 233.764546,40.985366 233.862108,40.9658537 L234.008449,41.0243902 C234.008449,41.2390255 233.676745,41.7268255 233.013327,42.4878049 C232.623082,42.9365876 232.174306,43.4146316 231.666986,43.9219512 C231.666986,44.6634183 231.637718,45.7756023 231.579181,47.2585366 C231.520644,48.7414708 231.491376,49.8438988 231.491376,50.5658537 C231.491376,51.7365912 231.413328,52.7024352 231.25723,53.4634146 C230.984058,54.8097628 230.496258,55.4829268 229.793815,55.4829268 C229.618205,55.4829268 229.364549,55.2585388 229.03284,54.8097561 C228.798692,54.4780471 228.574304,54.1560991 228.359669,53.8439024 C227.618202,53.2195091 227.042598,52.7219531 226.63284,52.3512195 C226.223082,51.980486 226.018206,51.72683 226.018206,51.5902439 L226.164547,51.4731707 C226.379182,51.5317076 226.691374,51.6195116 227.101132,51.7365854 C227.842599,51.9512206 228.379179,52.0585366 228.710888,52.0585366 C229.003573,52.0585366 229.203571,51.9560986 229.310888,51.7512195 C229.418206,51.5463404 229.471864,51.2878064 229.471864,50.9756098 C229.530401,50.390241 229.569425,49.760979 229.588937,49.0878049 C229.60845,48.4146308 229.618206,47.6682968 229.618206,46.8487805 L229.618206,45.6487805 C229.169423,45.9609772 228.730403,46.3024372 228.301132,46.6731707 C227.715764,47.1804903 227.349914,47.5658523 227.203571,47.8292683 C227.057229,48.0926842 226.935279,48.2731702 226.837718,48.3707317 C226.662107,48.5658546 226.486499,48.6634146 226.310888,48.6634146 C225.881618,48.6634146 225.398696,48.2975646 224.862108,47.5658537 C224.32552,46.8341427 224.05723,46.2243927 224.05723,45.7365854 C224.05723,45.5219501 224.135278,45.4146341 224.291376,45.4146341 C224.349913,45.4146341 224.545033,45.4829261 224.876742,45.6195122 C225.071865,45.6975614 225.208449,45.7365854 225.286498,45.7365854 C225.540158,45.7365854 226.262102,45.4195154 227.452352,44.7853659 C228.642602,44.1512163 229.374302,43.7073183 229.647474,43.4536585 L229.647474,38.4195122 C229.335277,38.4195122 228.886501,38.4926822 228.301132,38.6390244 C227.715764,38.7853666 227.315768,38.8585366 227.101132,38.8585366 C226.691374,38.8585366 226.174306,38.6926846 225.549913,38.3609756 C225.179179,38.1658527 224.993815,38.0097567 224.993815,37.8926829 C224.993815,37.7756092 225.198691,37.7170732 225.608449,37.7170732 L226.662108,37.7756098 C227.169428,37.7756098 227.637716,37.7268298 228.066986,37.6292683 C228.496256,37.5317068 229.02308,37.3658548 229.647474,37.1317073 L229.647474,33.5609756 C229.647474,32.9951191 229.520646,32.4487831 229.266986,31.9219512 C228.954789,31.3951193 228.652353,30.8682953 228.359669,30.3414634 C228.359669,30.1658528 228.584057,30.0487808 229.03284,29.9902439 C229.579184,29.9902439 230.266982,30.2097539 231.096254,30.6487805 C231.925527,31.0878071 232.340157,31.5609731 232.340157,32.0682927 C232.340157,32.3024402 232.271865,32.6536562 232.135279,33.1219512 C231.998693,33.5902462 231.930401,33.9512182 231.930401,34.204878 L231.871864,36.5170732 C232.047475,36.439024 232.203571,36.370732 232.340157,36.3121951 C232.671866,36.1365845 232.95479,36.0487805 233.188937,36.0487805 C233.540158,36.0487805 233.871862,36.1219505 234.184059,36.2682927 C234.496256,36.4146349 234.652352,36.6536569 234.652352,36.9853659 C234.652352,37.3560994 234.262112,37.6292674 233.48162,37.804878 C232.564542,37.9414641 232.00845,38.0195121 231.813327,38.0390244 Z M238.574303,53.4634146 C238.37918,53.9902465 238.188938,54.3707305 238.003571,54.604878 C237.818205,54.8390256 237.637719,54.9560976 237.462108,54.9560976 C237.130399,54.9560976 236.842597,54.6341496 236.598693,53.9902439 C236.35479,53.3463382 236.23284,52.7219542 236.23284,52.1170732 L236.262108,51.795122 C236.574305,50.3512123 236.759669,49.4926843 236.818206,49.2195122 C237.013328,48.204873 237.110888,47.336589 237.110888,46.6146341 C237.110888,46.204876 237.159668,45.17074 237.25723,43.5121951 C237.296254,42.8487772 237.315766,42.2243932 237.315766,41.6390244 C237.315766,41.1121925 237.266986,40.5951245 237.169425,40.0878049 C237.071864,39.5804853 236.906012,39.2195133 236.671864,39.004878 C236.223081,39.2975624 235.862109,39.5219504 235.588937,39.6780488 C235.042593,40.0097578 234.691377,40.1756098 234.535279,40.1756098 C234.398693,40.1756098 234.330401,40.1073178 234.330401,39.9707317 C235.481626,38.1756008 236.486494,36.5853728 237.345035,35.2 C238.281625,33.6780412 238.749913,32.5268332 238.749913,31.7463415 C238.749913,31.5707308 238.706011,31.3756108 238.618206,31.1609756 C238.5304,30.9463404 238.447474,30.7219524 238.369425,30.4878049 C238.369425,30.3317065 238.496253,30.2536585 238.749913,30.2536585 C239.296257,30.2536585 239.988933,30.5073145 240.827962,31.0146341 C241.66699,31.5219538 242.086498,32.0292658 242.086498,32.5365854 C242.086498,32.7317083 241.949914,32.9170723 241.676742,33.0926829 C241.286496,33.3463427 241.071864,33.5024387 241.03284,33.5609756 C240.076737,34.8682992 239.130405,36.1756032 238.193815,37.4829268 L238.866986,37.5414634 C239.315769,37.5414634 239.847471,37.4878054 240.462108,37.3804878 C241.076745,37.2731702 241.618203,37.1609762 242.086498,37.0439024 C242.35967,36.5560951 242.710886,35.8829311 243.140157,35.0243902 C243.686501,33.9121896 243.959669,33.2487816 243.959669,33.0341463 C243.959669,32.8585357 243.866987,32.6243917 243.68162,32.3317073 C243.496253,32.0390229 243.403571,31.8536589 243.403571,31.7756098 C243.403571,31.6195114 243.549911,31.5414634 243.842596,31.5414634 C244.408452,31.5414634 245.066982,31.7317054 245.818206,32.1121951 C246.569429,32.4926848 246.945035,32.9268268 246.945035,33.4146341 C246.945035,33.5707325 246.837719,33.7365845 246.623084,33.9121951 C246.408448,34.0878058 246.203572,34.2439018 246.008449,34.3804878 C245.774302,34.6536599 245.51089,35.0146319 245.218206,35.4634146 C245.00357,35.8146359 244.769426,36.2146319 244.515766,36.6634146 C244.827963,36.62439 245.130399,36.52683 245.423084,36.3707317 C246.125526,36.0195104 246.642594,35.8439024 246.974303,35.8439024 C247.423086,35.8439024 247.823082,35.8975604 248.174303,36.004878 C248.525524,36.1121957 248.701132,36.3219497 248.701132,36.6341463 C248.701132,37.1804905 247.910896,37.5707305 246.330401,37.804878 C244.593807,37.9414641 243.579183,38.0292681 243.286498,38.0682927 C243.81333,38.3024402 244.159668,38.5365842 244.325523,38.7707317 C244.491377,39.0048792 244.574303,39.3170712 244.574303,39.7073171 L244.486498,41.3170732 C244.740158,41.3170732 245.091374,41.2243912 245.540157,41.0390244 C245.988939,40.8536576 246.330399,40.7609756 246.564547,40.7609756 C246.857231,40.7609756 247.208447,40.8292676 247.618206,40.9658537 C248.027964,41.1024397 248.23284,41.2780477 248.23284,41.4926829 C248.23284,41.765855 247.876746,42.019511 247.164547,42.2536585 C246.452348,42.487806 245.559674,42.653658 244.486498,42.7512195 L244.486498,45.6195122 C244.701133,45.6195122 245.062105,45.5658542 245.569425,45.4585366 C246.076745,45.351219 246.408449,45.297561 246.564547,45.297561 C246.993817,45.297561 247.462105,45.360975 247.969425,45.4878049 C248.476745,45.6146348 248.730401,45.8146328 248.730401,46.0878049 C248.730401,46.497563 248.115773,46.770731 246.886498,46.9073171 C246.086494,46.9853662 245.296258,47.0536582 244.515766,47.1121951 L244.486498,51.7073171 C244.915769,51.7073171 245.530397,51.6195131 246.330401,51.4439024 C247.130405,51.2682918 247.725521,51.1804878 248.115766,51.1804878 C248.720648,51.1804878 249.335276,51.4097538 249.959669,51.8682927 C250.584062,52.3268316 250.896254,52.7317056 250.896254,53.0829268 C250.896254,53.3560989 250.671866,53.4926829 250.223084,53.4926829 L249.754791,53.4341463 C247.823074,53.1024374 245.910898,52.9365854 244.018206,52.9365854 C242.18405,52.9365854 240.369434,53.1121934 238.574303,53.4634146 Z" id="原力推"></path>
            </g>
        </g>
    </g>
</svg>